<svg height="512" viewBox="0 0 60 59" width="512" xmlns="http://www.w3.org/2000/svg"><g id="099---Hiking" fill="none"><path id="Shape" d="m27 51h-8c-.5522847 0-1-.4477153-1-1v-6l7 2c1.6568542 0 3 1.3431458 3 3v1c0 .5522847-.4477153 1-1 1z" fill="#393f4a"/><path id="Shape" d="m14 58h-8c-.55228475 0-1-.4477153-1-1v-6l7 2c1.6568542 0 3 1.3431458 3 3v1c0 .2652165-.1053568.5195704-.2928932.7071068s-.4418903.2928932-.7071068.2928932z" fill="#393f4a"/><path id="Shape" d="m60 57c0 .5522847-.4477153 1-1 1h-44v-1h.39c.2919896-.0014424.5690961-.1290573.76-.35l4.8-5.6.109-.05h18.671l5.33 4.82c.1699997.1186733.3726819.1815747.58.18h14.36z" fill="#4fba6f"/><path id="Shape" d="m16.37 10.56c1.1497269-1.03602345 1.8042591-2.51235713 1.8-4.06-.0039404-2.42180115-1.5915293-4.55603199-3.9099165-5.25618719-2.3183871-.7001552-4.82192599.19855106-6.16571954 2.21333523s-1.21157176 4.67145448.32563604 6.54285196" fill="#f9c795"/><path id="Shape" d="m25.35 17.81-3.15 3.93-2.2-2.2v10.46h-4.27c.1762535-.3038396.2693767-.6487402.27-1v-13c.5522847 0 1-.4477153 1-1v-3h.88c1.0611852-.0008345 2.0792116.4200457 2.83 1.17z" fill="#e64c3c"/><path id="Shape" d="m25 36v10h-7l-1-8c0-.5522847-.4477153-1-1-1h-2c-.5522847 0-1 .4477153-1 1l-1 15h-7v-22h9c.7137984-.0007321 1.373101-.3818319 1.73-1h3.27c3.3137085 0 6 2.6862915 6 6z" fill="#3f5c6c"/><path id="Shape" d="m16 16v13c0 1.1045695-.8954305 2-2 2h-10c-1.10320187-.0032948-1.9967052-.8967981-2-2v-13z" fill="#d25627"/><path id="Shape" d="m36 23.46v25.54c-.0032948 1.1032019-.8967981 1.9967052-2 2-1.1011688-.0081672-1.9918328-.8988312-2-2v-25z" fill="#7f6e5d"/><path id="Shape" d="m6 27c-.55228475 0-1-.4477153-1-1v-3c0-.5522847.44771525-1 1-1s1 .4477153 1 1v3c0 .5522847-.44771525 1-1 1z" fill="#5f5346"/><path id="Shape" d="m12 27c-.5522847 0-1-.4477153-1-1v-3c0-.5522847.4477153-1 1-1s1 .4477153 1 1v3c0 .5522847-.4477153 1-1 1z" fill="#5f5346"/><circle id="Oval" cx="49" cy="11" fill="#f3d55b" r="5"/><g fill="#f0c419"><path id="Shape" d="m49 2.909c-.5522847 0-1-.44771525-1-1v-.909c0-.55228475.4477153-1 1-1s1 .44771525 1 1v.909c0 .55228475-.4477153 1-1 1z"/><path id="Shape" d="m49 22c-.5522847 0-1-.4477153-1-1v-.909c0-.5522847.4477153-1 1-1s1 .4477153 1 1v.909c0 .5522847-.4477153 1-1 1z"/><path id="Shape" d="m59 12h-.909c-.5522847 0-1-.4477153-1-1s.4477153-1 1-1h.909c.5522847 0 1 .4477153 1 1s-.4477153 1-1 1z"/><path id="Shape" d="m39.909 12h-.909c-.5522847 0-1-.4477153-1-1s.4477153-1 1-1h.909c.5522847 0 1 .4477153 1 1s-.4477153 1-1 1z"/><path id="Shape" d="m55.429 5.571c-.4043959-.00008635-.7689341-.2437275-.923678-.61734544s-.0692299-.80366031.216678-1.08965456l.642-.642c.3923789-.37897221 1.0160848-.37355237 1.4018186.01218142.3857338.3857338.3911536 1.00943969.0121814 1.40181858l-.642.642c-.1874927.18754937-.4418052.29294336-.707.293z"/><path id="Shape" d="m41.929 19.071c-.4043959-.0000863-.7689341-.2437275-.923678-.6173454-.1547439-.373618-.0692299-.8036603.216678-1.0896546l.642-.642c.3923789-.3789722 1.0160848-.3735524 1.4018186.0121814s.3911536 1.0094397.0121814 1.4018186l-.642.642c-.1874927.1875494-.4418052.2929434-.707.293z"/><path id="Shape" d="m56.071 19.071c-.2651948-.0000566-.5195073-.1054506-.707-.293l-.642-.642c-.3789722-.3923789-.3735524-1.0160848.0121814-1.4018186s1.0094397-.3911536 1.4018186-.0121814l.642.642c.2859079.2859943.3714219.7160366.216678 1.0896546-.1547439.3736179-.5192821.6172591-.923678.6173454z"/><path id="Shape" d="m42.571 5.571c-.2651948-.00005664-.5195073-.10545063-.707-.293l-.642-.642c-.3789722-.39237889-.3735524-1.01608478.0121814-1.40181858.3857338-.38573379 1.0094397-.39115363 1.4018186-.01218142l.642.642c.2859079.28599425.3714219.71603662.216678 1.08965456s-.5192821.61725909-.923678.61734544z"/></g><path id="Shape" d="m60 56c0 .5522847-.4477153 1-1 1h-11.36c-.6226083-.001011-1.2299237-.1929785-1.74-.55l-5.96-4.27c-.1699997-.1186733-.3726819-.1815747-.58-.18h-17.44c-.2919896.0014424-.5690961.1290573-.76.35l-4.8 5.6-.05.05c-.5662501.636726-1.3779092 1.0006987-2.23 1h-13.08c-.55228475 0-1-.4477153-1-1s.44771525-1 1-1h13.08c.2919896-.0014424.5690961-.1290573.76-.35l4.8-5.6.05-.05c.5662501-.636726 1.3779092-1.0006987 2.23-1h17.44c.6226083.001011 1.2299237.1929785 1.74.55l.63.45 5.33 3.82c.1699997.1186733.3726819.1815747.58.18h11.36c.5522847 0 1 .4477153 1 1z" fill="#24ae5f"/><path id="Shape" d="m57.276 46-21.276.0000045v-1.7500045l5.86-10.25 5.14-2 5.14 2 6.005 10.5c.1789008.3098616.178618.6916945-.0007414 1.0012908-.1793595.3095963-.5104618.4997744-.8682586.4987092z" fill="#7f8c8d"/><path id="Shape" d="m2 13h14v7c0 1.6568542-1.3431458 3-3 3h-8c-1.65685425 0-3-1.3431458-3-3z" fill="#e57e25"/><path id="Shape" d="m10 20h-2c-.55228475 0-1-.4477153-1-1s.44771525-1 1-1h2c.5522847 0 1 .4477153 1 1s-.4477153 1-1 1z" fill="#5f5346"/><path id="Shape" d="m17 12v3c0 .5522847-.4477153 1-1 1h-14c-.55228475 0-1-.4477153-1-1v-3c.0032948-1.1032019.89679813-1.9967052 2-2h12c1.1032019.0032948 1.9967052.8967981 2 2z" fill="#f29c1f"/><path id="Shape" d="m32 19v5.0000012l-5.88-.0000012c-1.0611852.0008345-2.0792116-.4200457-2.83-1.17l-1.09-1.09 3.15-3.93.9.9c.1868.1839319.4378533.2879397.7.29z" fill="#f9c795"/><path id="Shape" d="m36.99 21.76c-.1821971 1.305341-1.3122995 2.2678617-2.63 2.24h-2.36v-5.0000025l2.5.0000025c.7089098-.0010086 1.3849166.2989977 1.8597846.8253574s.7039428 1.2295763.6302154 1.9346426z" fill="#f9c795"/><path id="Shape" d="m32 25c-.5522847 0-1-.4477153-1-1v-5c0-.5522847.4477153-1 1-1s1 .4477153 1 1v5c0 .5522847-.4477153 1-1 1z" fill="#56595e"/><path id="Shape" d="m52.14 34h-10.28l4.27-7.48c.1775612-.3133105.509873-.5069483.87-.5069483s.6924388.1936378.87.5069483z" fill="#ecf0f1"/></g></svg>