<svg height="512" viewBox="0 0 58 58" width="512" xmlns="http://www.w3.org/2000/svg"><g id="006---Hiking" fill="none"><path id="Shape" d="m46 22h-3.93c-.667998.0021877-1.2921138-.3324286-1.66-.89l-4.73-7.09c-.9909632-1.4844592-2.7496271-2.2636955-4.5149476-2.0005023-1.7653205.2631933-3.2201994 1.5215396-3.7350524 3.2305023l-4.18 12.36c-.1223537.4554607-.2059848.9204497-.25 1.39-1.4 9.85-1.259 9.779-1.87 10.6l-6.94 9.55c-.4800709.634315-.6951782 1.4302122-.6 2.22.1728537 1.2268521 1.0772788 2.2237905 2.2815544 2.5149341 1.2042756.2911435 2.464235-.1825372 3.1784456-1.1949341 8.651-11.2 8.472-10.75 8.64-11.76l.59-3.4 3.68 4.12c.675242.8732383 1.0410857 1.946145 1.04 3.05v6.3c.0005341.8335376.347835 1.6292764.9586461 2.1964581.610811.5671816 1.4300605.8546682 2.2613539.7935419 1.606686-.1715475 2.8145822-1.5445519 2.78-3.16v-9.93c-.0004664-1.2234042-.4486528-2.4043398-1.26-3.32l-5.97-6.72c-.4724354-.5356937-.6247477-1.282024-.4-1.96l2.45-7.35 1.98 2.78c.753985 1.049566 1.9676841 1.6713076 3.26 1.67h6.94c1.1045695 0 2-.8954305 2-2s-.8954305-2-2-2z" fill="#5d4c72"/><path id="Shape" d="m46 55c-.5522847 0-1-.4477153-1-1v-38c0-.5522847.4477153-1 1-1s1 .4477153 1 1v38c0 .5522847-.4477153 1-1 1z" fill="#a56a43"/><path id="Shape" d="m20.14 51.28-1.09 1.41c-.9685586 1.2922309-2.7597346 1.6383518-4.14.8-.6936152-.4623985-1.1646608-1.191499-1.3010917-2.0138742s.0739468-1.6645229.5810917-2.3261258l1.28-1.76z" fill="#393f4a"/><circle id="Oval" cx="37" cy="5" fill="#fdd7ad" r="5"/><path id="Shape" d="m39 46v4.83c.0345822 1.6154481-1.173314 2.9884525-2.78 3.16-.8312934.0611263-1.6505429-.2263603-2.2613539-.7935419-.6108111-.5671817-.958112-1.3629205-.9586461-2.1964581v-5z" fill="#393f4a"/><path id="Shape" d="m48 24c-.0027483 1.1034291-.8965709 1.9972517-2 2h-6.94c-1.2923159.0013076-2.506015-.620434-3.26-1.67l-1.22-1.72 4.73-3.15 1.1 1.65c.3678862.5575714.992002.8921877 1.66.89h3.93c1.1032019.0032948 1.9967052.8967981 2 2z" fill="#fdd7ad"/><path id="Shape" d="m39.31 19.46-4.73 3.15-.76-1.06-2.45 7.35c-.1774483.5108525-.1339623 1.072547.12 1.55l-8.19-2.98 4.13-12.22c.514853-1.7089627 1.9697319-2.967309 3.7350524-3.2305023 1.7653205-.2631932 3.5239844.5160431 4.5149476 2.0005023z" fill="#3b97d3"/><path id="Shape" d="m39 40.9v8.1h-6v-4.3c.0010857-1.103855-.364758-2.1767617-1.04-3.05l-3.68-4.12v-.01l-4.04-4.52c-1.1881172-1.5833141-1.5382331-3.6430386-.94-5.53l8.19 2.98c.133.285-.192-.121 6.25 7.13.8113472.9156602 1.2595336 2.0965958 1.26 3.32z" fill="#7d6599"/><path id="Shape" d="m.107 56.553 1-2c.16910225-.3384076.51469464-.5524195.893-.553h54c.3786657.0002022.7247365.2142706.894.553l1 2c.1548588.3099025.1382854.6778792-.0438055.9726057-.1820908.2947265-.5037544.4742093-.8501945.4743943h-56c-.34626213-.0005309-.6676078-.1801526-.84945791-.474819-.1818501-.2946664-.19832185-.6624376-.04354209-.972181z" fill="#24ae5f"/><path id="Shape" d="m2.1 56.553.932-2c.14523861-.3307985.46977565-.546766.831-.553h50.274c.3615889.0058464.6866109.2218766.832.553l.932 2c.1508679.3003696.1407394.6564406-.026959.9477486-.1676983.2913079-.4705295.4788776-.806041.4992514h-52.136c-.33533131-.02069-.63786273-.2083863-.80532979-.4996421s-.17748603-.6471417-.02667021-.9473579z" fill="#4fba6f"/><path id="Shape" d="m28.48 12.57-5.89 17.01c-.1746119.5015755-.5415529.9131034-1.0199118 1.1438413-.478359.2307379-1.0288498.2617358-1.5300882.0861587l-6.5-2.25c-.5681541-.1764208-1.0315159-.5911753-1.2695659-1.1363867-.2380501-.5452114-.2272592-1.1669903.0295659-1.7036133v-.01c.4671772-.8759685 1.498916-1.286127 2.44-.97 1.481.514.856.338.51.11-.7656705-.5042362-1.09444-1.4617774-.8-2.33l4.58-13.22c.3657327-1.04303663 1.5037456-1.59642333 2.55-1.24l5.67 1.97c1.0392975.3637216 1.5891061 1.4990987 1.23 2.54z" fill="#e64c3c"/><g fill="#c03a2b"><path id="Shape" d="m17.62 26.9c-.207903.5100784-.7891456.7559887-1.3.55-3.338-1.371-4.02-1.611-4.02-1.74.2024564-.379879.5214099-.6848126.91-.87.865-.433 1.564-.088 2.48.23-.1568417-.0509207-.3051584-.1250791-.44-.22l1.83.75c.244422.1002683.438812.2938034.5401566.5377811s.1012882.5182828-.0001566.7622189z"/><path id="Shape" d="m25.53 21.08-.65 1.88c-.1-.05-4.233-1.464-9.45-3.27l.65-1.89c10.792 3.743 9.344 3.227 9.45 3.28z"/><path id="Shape" d="m27.49 15.42-.64 1.87c-.1 0-3.4-1.173-9.45-3.27l.65-1.88c8.58 2.973 9.335 3.21 9.44 3.28z"/></g></g></svg>