<?xml version="1.0" encoding="iso-8859-1"?>
<!-- Generator: Adobe Illustrator 19.0.0, SVG Export Plug-In . SVG Version: 6.00 Build 0)  -->
<svg version="1.1" id="Capa_1" xmlns="http://www.w3.org/2000/svg" xmlns:xlink="http://www.w3.org/1999/xlink" x="0px" y="0px"
	 viewBox="0 0 512 512" style="enable-background:new 0 0 512 512;" xml:space="preserve">
<path style="fill:#D6C0BC;" d="M386.679,26.67l124.697,200.066c0.408,0.654,0.624,1.409,0.624,2.18v151.171
	c0,4.075-5.284,5.678-7.547,2.289L358.14,163.343L386.679,26.67z"/>
<path style="fill:#B8938E;" d="M479.521,175.627l2.209,172.733l22.722,34.016c2.264,3.389,7.547,1.786,7.547-2.289V228.916
	c0-0.771-0.216-1.526-0.624-2.18L479.521,175.627z"/>
<path style="fill:#E3D9D7;" d="M382.246,512H129.754c-2.371,0-4.222-2.051-3.979-4.41l21.711-210.753h217.029l21.711,210.753
	C386.468,509.949,384.617,512,382.246,512z"/>
<path style="fill:#CFC0BE;" d="M364.514,296.837h-31.569L355.11,512h27.136c2.371,0,4.222-2.051,3.979-4.41L364.514,296.837z"/>
<path style="fill:#39363D;" d="M238.254,440.645l31.655-175.314l-36.777-2.009l-32.64,167.452c-0.41,2.105,0.863,4.174,2.928,4.755
	l29.662,8.35C235.423,444.538,237.822,443.038,238.254,440.645z"/>
<rect x="179.42" y="13.266" style="fill:#D6C0BC;" width="153.15" height="185.05"/>
<polygon style="fill:#E3D9D7;" points="364.401,264.511 386.679,26.67 348.763,16.971 224.431,264.511 "/>
<polygon style="fill:#CFC0BE;" points="367.638,21.8 333.695,264.511 364.401,264.511 386.679,26.671 "/>
<path style="fill:#3F3C45;" d="M359.284,15.343l-24.63-14.756c-2.086-1.249-4.794-0.431-5.839,1.764l-124.764,262.16h37.842
	L360.869,20.685C361.807,18.762,361.119,16.442,359.284,15.343z"/>
<path style="fill:#D6C0BC;" d="M125.321,26.67L0.624,226.736C0.216,227.39,0,228.146,0,228.916v151.171
	c0,4.075,5.284,5.678,7.547,2.289L153.86,163.343L125.321,26.67z"/>
<polygon style="fill:#E3D9D7;" points="147.599,264.511 125.321,26.67 163.237,16.971 287.569,264.511 "/>
<path style="fill:#47444D;" d="M152.716,15.343l24.63-14.756c2.086-1.249,4.794-0.431,5.839,1.764l124.764,262.16h-37.842
	L151.131,20.685C150.193,18.762,150.881,16.442,152.716,15.343z"/>
<path style="fill:#3F3C45;" d="M371.723,300.118H140.277c-1.138,0-2.06-0.922-2.06-2.06v-35.026c0-1.138,0.922-2.06,2.06-2.06
	h231.447c1.138,0,2.06,0.922,2.06,2.06v35.026C373.784,299.195,372.861,300.118,371.723,300.118z"/>
<g>
	<path style="fill:#39363D;" d="M342.878,260.971v39.147h28.845c1.138,0,2.06-0.922,2.06-2.06v-35.026c0-1.138-0.922-2.06-2.06-2.06
		h-28.845V260.971z"/>
	<path style="fill:#39363D;" d="M273.492,430.263l-44.236-169.764c-0.675-2.589,1.258-5.124,3.933-5.159l28.769-0.383
		c1.869-0.025,3.521,1.212,4.024,3.013l45.147,161.792c0.611,2.189-0.665,4.458-2.853,5.074l-29.68,8.355
		C276.375,433.815,274.074,432.495,273.492,430.263z"/>
</g>
<g>
</g>
<g>
</g>
<g>
</g>
<g>
</g>
<g>
</g>
<g>
</g>
<g>
</g>
<g>
</g>
<g>
</g>
<g>
</g>
<g>
</g>
<g>
</g>
<g>
</g>
<g>
</g>
<g>
</g>
</svg>
