<svg height="512" viewBox="0 0 512 512" width="512" xmlns="http://www.w3.org/2000/svg"><g id="Flat"><path d="m240 376v46l-40 50-72-64h-24l-56-40 30.25-21.25 7.83-16.24 14.59-30.29 35.33 11.78 8 48 30.55 17.45 17.45-17.45 3-4.75z" fill="#f4ceaf"/><path d="m116.73125 378.17917a4.85731 4.85731 0 0 1 -6.43724-.95792 62.16824 62.16824 0 0 1 -14.22393-36.90143 40.688 40.688 0 0 1 -9.99-9.81l4.09235-8.49615 13.82757 13.98633 14.541 36.35244a4.84171 4.84171 0 0 1 -1.80975 5.82673z" fill="#f2c194"/><path d="m496 304v192h-264v-112l-72.16992-41.35986 41.81006-58.54a48.014 48.014 0 0 1 39.05986-20.10014h31.24a24.06472 24.06472 0 0 0 24.06-24.06006v-62.25l80-1.68994v64a23.98552 23.98552 0 0 0 16.32007 22.73 23.51785 23.51785 0 0 0 7.67993 1.27h36.12012a48.00341 48.00341 0 0 1 33.93994 14.06006z" fill="#8acce7"/><circle cx="320" cy="112" fill="#2f4054" r="88"/><path d="m392.32007 262.73-.32007 1.27a42.243 42.243 0 0 1 -40.99 32h-30.02a42.243 42.243 0 0 1 -40.99-32l-.32007-1.28027a24.03019 24.03019 0 0 0 14.92993-14.73973 23.78436 23.78436 0 0 0 1.39014-8.04v-102.25l80-1.69v104a23.98552 23.98552 0 0 0 16.32007 22.73z" fill="#f4ceaf"/><path d="m352 128a16 16 0 0 1 16-16 16 16 0 0 1 16 16v32a16 16 0 0 1 -16 16 16 16 0 0 1 -16-16z" fill="#f2c194"/><path d="m352 232h-56a64 64 0 0 1 -64-64v-56l.40206-.40206a135.19581 135.19581 0 0 1 95.59788-39.59794h.00006l1.37261 1.37261a77.25476 77.25476 0 0 1 22.62739 54.62739z" fill="#f4ceaf"/><path d="m352 232v16h-56c-.46 0-.92993 0-1.39014-.02a23.78436 23.78436 0 0 0 1.39014-8.04v-7.94z" fill="#f4ceaf"/><path d="m264 120h-16a8 8 0 0 1 0-16h16a8 8 0 0 1 0 16z" fill="#2f4054"/><path d="m320 120h-16a8 8 0 0 1 0-16h16a8 8 0 0 1 0 16z" fill="#2f4054"/><path d="m272.001 160.002a8.00445 8.00445 0 0 1 -7.59082-10.53222l8-24a8.0005 8.0005 0 0 1 15.17968 5.06054l-8 24a8.00486 8.00486 0 0 1 -7.58886 5.47168z" fill="#f2c194"/><circle cx="256" cy="136" fill="#2f4054" r="8"/><circle cx="312" cy="136" fill="#2f4054" r="8"/><path d="m288 216h-8a8 8 0 0 1 0-16h8a8 8 0 0 0 0-16h-16a8 8 0 0 1 0-16h16a24 24 0 0 1 0 48z" fill="#f2c194"/><path d="m352 240a8 8 0 0 1 -8 8h-48c-.46 0-.92993 0-1.39014-.02a23.78436 23.78436 0 0 0 1.39014-8.04v-7.94h48a8 8 0 0 1 8 8z" fill="#f2c194"/><path d="m232 352h16v144h-16z" fill="#379ec3"/><path d="m207.94 378.11-7.94 13.89-25.45-14.55 11.72-11.72z" fill="#f2c194"/><path d="m144 272-16.43 28.75-29.68 51.95-49.89 87.3-24-16 72-176z" fill="#396795"/><path d="m184 224a47.99674 47.99674 0 1 1 -48-48 47.918 47.918 0 0 1 48 48z" fill="#2f4054"/><path d="m183.55005 230.6001a47.69435 47.69435 0 0 1 -12.39014 26.06006l-81.16991-46.38016a47.97649 47.97649 0 0 1 16.18994-23.88989z" fill="#c4d4e0"/><path d="m424 352h16v144h-16z" fill="#379ec3"/><path d="m440 496-.086-112 56.086-32.191v144.191z" fill="#f4ceaf"/><path d="m123.52 307.83984-25.62986 44.86036a62.24087 62.24087 0 0 1 -1.82007-12.38038 41.21577 41.21577 0 0 1 -15.66016-46.85009z" fill="#26507a"/><path d="m168 32h-64a8.00039 8.00039 0 0 0 -8 8v41.37622a23.99787 23.99787 0 1 0 16 22.62378v-56h48v33.37622a23.99787 23.99787 0 1 0 16 22.62378v-64a8.00039 8.00039 0 0 0 -8-8zm-80 80a8 8 0 1 1 8-8 8.00917 8.00917 0 0 1 -8 8zm64 0a8 8 0 1 1 8-8 8.00917 8.00917 0 0 1 -8 8z" fill="#349966"/><path d="m104.84009 334.31006-7.65015 15.2998-18.03 36.08008a16.00172 16.00172 0 0 1 -21.47 7.1499l-19.37988-9.67968a16.002 16.002 0 0 1 -7.15015-21.47022l25.68018-51.37988a16.00172 16.00172 0 0 1 21.47-7.1499l.12988.05957 19.25 9.62011a16.002 16.002 0 0 1 7.15012 21.47022z" fill="#f4ceaf"/><path d="m104.84009 334.31006-7.65015 15.2998a62.21148 62.21148 0 0 1 -1.11987-9.29 41.22876 41.22876 0 0 1 -17.63013-37.10009l19.25 9.62011a16.002 16.002 0 0 1 7.15015 21.47018z" fill="#f2c194"/><path d="m144 360-8-48-48-16a33.12167 33.12167 0 0 0 13.04938 38.03289l2.95062 1.96711v1.37261a54.62737 54.62737 0 0 0 16 38.62739z" fill="#f4ceaf"/></g></svg>